<svg xmlns="http://www.w3.org/2000/svg" version="1.1" xmlns:xlink="http://www.w3.org/1999/xlink" xmlns:svgjs="http://svgjs.dev/svgjs" width="2000" height="1440" preserveAspectRatio="none" viewBox="0 0 2000 1440">
    <g mask="url(&quot;#SvgjsMask1009&quot;)" fill="none">
        <rect width="2000" height="1440" x="0" y="0" fill="rgba(168, 230, 204, 1)"></rect>
        <path d="M1879.987,1916.341C1999.195,1909.28,2067.252,1792.473,2123.046,1686.892C2173.97,1590.526,2208.02,1482.63,2161.191,1384.209C2107.487,1271.34,2004.955,1178.621,1879.987,1176.056C1751.372,1173.416,1640.05,1259.524,1578.051,1372.24C1518.345,1480.787,1521.242,1610.656,1581.353,1718.979C1643.406,1830.801,1752.325,1923.903,1879.987,1916.341" fill="rgba(3, 45, 55, 0.24)" class="triangle-float3"></path>
        <path d="M1355.572,1141.002C1404.774,1140.987,1447.426,1110.4,1472.33,1067.966C1497.578,1024.948,1504.155,972.352,1480.246,928.576C1455.384,883.055,1407.429,853.095,1355.572,854.187C1305.38,855.244,1263.748,889.588,1239.67,933.64C1216.64,975.775,1215.26,1026.124,1238.688,1068.039C1262.706,1111.009,1306.345,1141.017,1355.572,1141.002" fill="rgba(3, 45, 55, 0.24)" class="triangle-float3"></path>
        <path d="M1532.97 764.57 a318.8 318.8 0 1 0 637.6 0 a318.8 318.8 0 1 0 -637.6 0z" fill="rgba(3, 45, 55, 0.24)" class="triangle-float2"></path>
        <path d="M449.57946094162025-17.88892032913364L72.39323478922446 61.9088556745331 293.4970086869114 316.2596518837695z" fill="rgba(3, 45, 55, 0.24)" class="triangle-float1"></path>
        <path d="M325.15432543493796 757.6098913399821L497.3107540482299 511.7450309680679 251.4458936763157 339.58860235477596 79.28946506302375 585.4534627266902z" fill="rgba(3, 45, 55, 0.24)" class="triangle-float3"></path>
        <path d="M1481.59 1220.09 a253.59 253.59 0 1 0 507.18 0 a253.59 253.59 0 1 0 -507.18 0z" fill="rgba(3, 45, 55, 0.24)" class="triangle-float3"></path>
        <path d="M836.3876279596058 204.99423893131308L1206.6303762987864 257.02846382540895 1258.6646011928824-113.21428451377159 888.4218528537017-165.24850940786752z" fill="rgba(3, 45, 55, 0.24)" class="triangle-float2"></path>
        <path d="M1039.2574769577607 771.1157212315105L1024.9560450195772 361.5762939413072 615.4166177293739 375.87772587949064 629.7180496675574 785.417153169694z" fill="rgba(3, 45, 55, 0.24)" class="triangle-float2"></path>
        <path d="M140.68219488922148 619.3537607912774L-49.04849001692236 716.0263733009662 190.82577120068274 952.2860944053375z" fill="rgba(3, 45, 55, 0.24)" class="triangle-float2"></path>
        <path d="M1103.9777517004848 1336.3263980976205L1435.543176878554 1167.3853757969534 1266.6021545778867 835.8199506188841 935.0367293998175 1004.7609729195513z" fill="rgba(3, 45, 55, 0.24)" class="triangle-float1"></path>
        <path d="M611.996,1385.943C706.599,1384.898,802.349,1354.34,851.852,1273.715C903.477,1189.635,896.653,1084.738,850.465,997.553C800.836,903.872,717.926,825.198,611.996,820.957C499.426,816.451,391.827,878.072,337.994,977.038C286.251,1072.162,302.5,1189.162,362.779,1279.119C416.704,1359.593,515.131,1387.013,611.996,1385.943" fill="rgba(3, 45, 55, 0.24)" class="triangle-float2"></path>
        <path d="M1560.4035844689843-94.2471406919825L1298.306146566999-66.69958991620119 1325.8536973427802 195.3978479857842 1587.9511352447655 167.8502972100029z" fill="rgba(3, 45, 55, 0.24)" class="triangle-float2"></path>
        <path d="M211.91654943834502-124.72455309972594L28.35766570915345 79.13824037799088 232.22045918687027 262.69712410718245 415.77934291606186 58.834330629465626z" fill="rgba(3, 45, 55, 0.24)" class="triangle-float2"></path>
        <path d="M560.042,734.753C617.794,733.762,656.415,682.283,684.889,632.028C712.828,582.716,732.437,525.732,707.231,474.968C679.45,419.018,622.489,382.168,560.042,380.589C494.854,378.941,429.356,409.279,399.37,467.184C371.18,521.621,395.989,583.887,427.548,636.443C457.892,686.975,501.108,735.764,560.042,734.753" fill="rgba(3, 45, 55, 0.24)" class="triangle-float2"></path>
        <path d="M-201.5 1111.27 a415.23 415.23 0 1 0 830.46 0 a415.23 415.23 0 1 0 -830.46 0z" fill="rgba(3, 45, 55, 0.24)" class="triangle-float1"></path>
        <path d="M971.474,800.846C1059.743,801.565,1154.926,786.838,1202.116,712.239C1251.953,633.456,1242.916,529.88,1192.474,451.483C1145.762,378.884,1057.8,354.333,971.474,353.777C883.918,353.213,792.265,374.59,745.484,448.603C695.867,527.104,697.1,630.373,747.247,708.536C794.028,781.452,884.845,800.141,971.474,800.846" fill="rgba(3, 45, 55, 0.24)" class="triangle-float1"></path>
        <path d="M2052.5027850835636 190.2953024500038L1652.5113453587355 289.6195678554627 1898.2177631460886 553.1074421428723z" fill="rgba(3, 45, 55, 0.24)" class="triangle-float1"></path>
        <path d="M1470.4052567675794 1277.8638775916622L1729.7180975295146 1009.3375702275316 1461.191790165384 750.0247294655967 1201.8789494034488 1018.5510368297272z" fill="rgba(3, 45, 55, 0.24)" class="triangle-float3"></path>
    </g>
    <defs>
        <mask id="SvgjsMask1009">
            <rect width="2000" height="1440" fill="#ffffff"></rect>
        </mask>
        <style>
            @keyframes float1 {
                    0%{transform: translate(0, 0)}
                    50%{transform: translate(-10px, 0)}
                    100%{transform: translate(0, 0)}
                }

                .triangle-float1 {
                    animation: float1 5s infinite;
                }

                @keyframes float2 {
                    0%{transform: translate(0, 0)}
                    50%{transform: translate(-5px, -5px)}
                    100%{transform: translate(0, 0)}
                }

                .triangle-float2 {
                    animation: float2 4s infinite;
                }

                @keyframes float3 {
                    0%{transform: translate(0, 0)}
                    50%{transform: translate(0, -10px)}
                    100%{transform: translate(0, 0)}
                }

                .triangle-float3 {
                    animation: float3 6s infinite;
                }
        </style>
    </defs>
</svg>